<svg xmlns="http://www.w3.org/2000/svg" width="512" height="512"><path d="M194.88 12.002c-26.254-.172-47.578 11.747-58.428 25.062-6.342 7.784-12.201 19.583-14.724 33.327-2.523 13.744-1.386 29.78 8.27 43.41 5.196 7.338 14.594 15.997 26.593 26.434 12 10.438 26.352 22.105 40.192 33.058 27.678 21.907 53.321 40.964 53.321 40.964l5.234 5.435 5.233-5.435s25.644-19.057 53.322-40.964c13.84-10.953 28.192-22.62 40.191-33.058 11.999-10.437 21.396-19.096 26.593-26.433 9.655-13.63 10.793-29.667 8.27-43.411-2.523-13.744-8.383-25.543-14.726-33.327-11.2-13.745-33.56-26.001-60.982-25.007a88.654 88.654 0 00-12.045 1.271c-18.782 3.28-31.757 18.062-40.515 30.978a136.723 136.723 0 00-5.342 8.563 136.797 136.797 0 00-5.342-8.563c-8.758-12.916-21.732-27.698-40.515-30.978a88.66 88.66 0 00-12.045-1.271 86.186 86.186 0 00-2.556-.055zm.775 17.638a65.41 65.41 0 0110.808.975c10.762 1.879 21.47 12.42 29.01 23.539 7.539 11.119 11.697 21.666 11.697 21.666s2.371 2.339 8.168 2.339c5.797 0 8.169-2.34 8.169-2.34s4.157-10.546 11.696-21.665c7.54-11.12 18.248-21.66 29.01-23.54 26.24-4.58 48.572 7.918 56.407 17.533 3.976 4.88 9.137 14.887 11.07 25.412 1.932 10.526.958 21.22-5.332 30.1-2.775 3.919-12.136 13.199-23.79 23.337-11.655 10.139-25.852 21.685-39.564 32.539-20.015 15.841-38.872 30.114-47.666 36.72-8.793-6.606-27.65-20.879-47.666-36.72-13.712-10.854-27.91-22.4-39.564-32.539-11.655-10.138-21.017-19.418-23.793-23.337-6.29-8.88-7.26-19.574-5.329-30.1 1.932-10.525 7.095-20.533 11.07-25.412 6.733-8.263 24.174-18.656 45.599-18.507zM128.24 138.386l-19.624 6.76s8.51 24.707 17.017 55.033c8.508 30.327 16.811 66.794 16.811 86.922 0 18.694-12.232 44.757-25.57 71.988-13.337 27.232-27.684 55.791-27.684 84.443 0 25.5 1.974 41.974 4.09 52.405 1.058 5.215 2.155 8.921 3.073 11.48A36.8 36.8 0 0098.371 512l17.927-10.458s.128.36-.409-1.138c-.538-1.497-1.383-4.24-2.267-8.594-1.766-8.707-3.676-23.853-3.676-48.278 0-16.517 7.405-36.434 16.936-57.214 14.828 4.583 102.427 31.807 108.142 37.179 6.238 5.864 10.599 13.93 10.599 14.49v58.8h20.754v-58.8c0-.56 4.361-8.626 10.6-14.49 5.713-5.371 93.309-32.594 108.14-37.179 9.532 20.78 16.937 40.697 16.937 57.214 0 24.425-1.91 39.57-3.677 48.278-.883 4.354-1.728 7.097-2.266 8.594-.537 1.498-.41 1.138-.41 1.138L413.63 512s1.099-2.023 2.017-4.583c.919-2.559 2.014-6.265 3.072-11.48 2.117-10.43 4.091-26.904 4.091-52.405 0-28.652-14.347-57.211-27.685-84.443-13.338-27.231-25.569-53.294-25.569-71.988 0-20.128 8.303-56.595 16.81-86.922 8.509-30.326 17.018-55.033 17.018-55.033l-19.624-6.76s-8.687 25.217-17.376 56.187c-8.688 30.97-17.583 67.17-17.583 92.528 0 10.727 2.31 21.517 5.93 32.342l-.945-2.165s-18.311 7.998-39.996 15.98c-21.685 7.98-47.952 15.57-57.79 15.57-9.836 0-36.104-7.59-57.788-15.57-21.685-7.982-39.996-15.98-39.996-15.98l-.946 2.164c3.62-10.824 5.931-21.615 5.931-32.34 0-25.36-8.895-61.56-17.583-92.53-8.688-30.97-17.376-56.186-17.376-56.186zm22.389 198.123c1.825.794 19.27 8.344 40.443 16.138 22.345 8.224 47.038 16.842 64.927 16.842 17.888 0 42.582-8.618 64.926-16.842 21.175-7.794 38.62-15.345 40.445-16.138 4.596 10.56 9.937 21.14 15.114 31.71 0 0-106.096 32.983-113.725 40.155-2.189 2.058-4.531 4.232-6.76 6.612-2.23-2.38-4.571-4.554-6.76-6.612-7.63-7.172-113.725-40.156-113.725-40.156 5.177-10.57 10.519-21.148 15.115-31.709z" fill="#26A699"/></svg>