<svg xmlns="http://www.w3.org/2000/svg" width="512" height="128"><path d="M331.682 13.995c-.878 0-1.62.27-2.228.81-.608.541-.945 1.25-1.013 2.128l-5.672 64.419c-.068.945.169 1.755.709 2.43.607.608 1.35.98 2.228 1.114.945.068 1.722-.169 2.33-.709a3.67 3.67 0 001.215-2.228l.71-8.61h3.342l.81 8.61c.067.81.405 1.52 1.013 2.127.675.54 1.485.81 2.43.81 1.013-.135 1.79-.506 2.33-1.114.54-.675.743-1.485.608-2.43l-5.571-64.419c-.135-.878-.506-1.587-1.114-2.127a3.1 3.1 0 00-2.127-.81zm-168.47.1a11.147 11.147 0 00-.476.002h-5.368c-1.08 0-1.857.371-2.33 1.114-.473.675-.709 1.452-.709 2.33V81.757c0 .878.304 1.654.912 2.33.675.607 1.452.91 2.33.91.81 0 1.518-.303 2.126-.91.675-.676 1.013-1.452 1.013-2.33v-4.964l5.064 6.888c.676.878 1.554 1.316 2.634 1.316.675 0 1.317-.202 1.925-.607.878-.676 1.316-1.52 1.316-2.532 0-.675-.202-1.317-.608-1.924l-7.19-10.13c2.093-.202 3.713-.945 4.861-2.228 1.216-1.147 1.992-2.465 2.33-3.95.405-1.553.607-2.802.607-3.747V22.706c0-2.43-.844-4.49-2.532-6.178-1.582-1.583-3.55-2.394-5.905-2.434zm-46.258.002c-2.363 0-4.422.844-6.178 2.532-1.688 1.688-2.532 3.714-2.532 6.077v53.682c0 2.296.844 4.322 2.532 6.077 1.756 1.689 3.815 2.532 6.178 2.532 2.296 0 4.288-.843 5.977-2.532 1.755-1.755 2.633-3.781 2.633-6.077V22.706c0-2.363-.844-4.389-2.532-6.077-1.689-1.688-3.714-2.532-6.078-2.532zm90.247 0c-2.363 0-4.423.844-6.179 2.532-1.688 1.688-2.532 3.714-2.532 6.077v53.682c0 2.296.844 4.322 2.532 6.077 1.756 1.689 3.816 2.532 6.179 2.532 2.296 0 4.288-.843 5.976-2.532 1.755-1.755 2.633-3.781 2.633-6.077V22.706c0-2.363-.844-4.389-2.532-6.077-1.688-1.688-3.714-2.532-6.077-2.532zm236.504 0c-2.363 0-4.423.844-6.179 2.532-1.688 1.688-2.532 3.714-2.532 6.077v53.682c0 2.296.844 4.322 2.532 6.077 1.756 1.689 3.816 2.532 6.179 2.532 2.296 0 4.288-.843 5.976-2.532 1.755-1.755 2.633-3.781 2.633-6.077V22.706c0-2.363-.844-4.389-2.532-6.077-1.688-1.688-3.714-2.532-6.077-2.532zm-371.616.39c-.168.001-.338.007-.511.015h-5.47c-.81.068-1.519.439-2.126 1.114-.608.608-.912 1.35-.912 2.228v64.014c0 .878.304 1.654.912 2.329.607.608 1.35.912 2.228.912h5.368c2.43 0 4.49-.844 6.178-2.532 1.688-1.688 2.533-3.68 2.533-5.976V23.01c0-2.567-.777-4.66-2.33-6.28-1.393-1.52-3.35-2.268-5.87-2.244zm418.618 0c-.168.001-.339.007-.512.015h-5.469c-.81.068-1.52.439-2.127 1.114-.608.608-.911 1.35-.911 2.228v64.014c0 .878.303 1.654.91 2.329.609.608 1.351.912 2.23.912h5.367c2.431 0 4.491-.844 6.18-2.532 1.687-1.688 2.531-3.68 2.531-5.976V23.01c0-2.567-.776-4.66-2.33-6.28-1.392-1.52-3.348-2.268-5.869-2.244zm-94.505.116c-.878 0-1.655.304-2.33.912-.608.54-.911 1.283-.911 2.228v64.419c0 .945.303 1.721.91 2.33.676.54 1.453.81 2.33.81.879 0 1.62-.27 2.229-.81.607-.609.911-1.385.911-2.33V64.335l6.483 18.637c.54 1.418 1.519 2.127 2.937 2.127.608 0 .98-.034 1.114-.102a3.802 3.802 0 001.52-1.215c.405-.54.607-1.114.607-1.722 0-.202-.067-.573-.202-1.114l-9.015-26.334 8.306-35.653c.067-.068.1-.338.1-.81 0-.743-.235-1.385-.708-1.925a3.029 3.029 0 00-1.722-1.013l-.81-.101c-.81 0-1.486.203-2.026.608-.54.405-.878 1.013-1.013 1.823l-5.57 23.397V17.743c0-.945-.305-1.688-.912-2.228-.608-.608-1.35-.912-2.228-.912zm-375.368.102c-.878 0-1.621.303-2.229.911-.608.608-.912 1.385-.912 2.33 0 .878.304 1.62.912 2.228.608.608 1.35.912 2.229.912h4.962L20.53 81.554c-.135.878.068 1.654.608 2.33.608.675 1.35 1.046 2.228 1.113h8.61c.945 0 1.722-.303 2.33-.911.607-.608.91-1.35.91-2.228 0-.946-.303-1.722-.91-2.33-.608-.607-1.385-.912-2.33-.912h-4.76l5.266-60.468c.068-.877-.169-1.62-.709-2.228-.54-.675-1.283-1.08-2.228-1.215zm268.51.1c-.877 0-1.654.305-2.33.913-.607.54-.91 1.283-.91 2.228v63.912c0 .945.303 1.688.91 2.228.676.54 1.453.81 2.33.81.878 0 1.621-.27 2.229-.81.608-.54.911-1.283.911-2.228V17.946c0-.945-.303-1.688-.911-2.228-.608-.608-1.35-.912-2.229-.912zm-43.755.305c-1.013 0-1.858.303-2.533.911-.675.608-1.013 1.418-1.013 2.431l5.571 63.608c.068.81.406 1.486 1.013 2.026.676.54 1.452.81 2.33.81.81 0 1.519-.27 2.126-.81.608-.54.912-1.215.912-2.026l5.57-63.608c.068-1.013-.202-1.823-.81-2.43-.607-.609-1.383-.912-2.329-.912-.81 0-1.52.236-2.127.709-.608.472-.979 1.148-1.114 2.025l-2.33 27.348-2.43-27.348c-.068-.81-.372-1.451-.912-1.924-.473-.54-1.114-.81-1.924-.81zm-128.635 5.57c.54 0 1.013.237 1.418.71.473.405.71.843.71 1.316v53.682c0 .54-.237 1.013-.71 1.418-.405.405-.878.608-1.418.608-.607 0-1.114-.203-1.519-.608-.405-.405-.607-.878-.607-1.418V22.706c0-.54.202-1.013.607-1.418.405-.405.912-.608 1.52-.608zm43.756 0h2.431c.743 0 1.283.203 1.62.608.338.338.507.81.507 1.418V59.88c0 1.215-.169 2.126-.506 2.734-.27.608-.912.912-1.925.912h-2.127zm46.49 0c.541 0 1.014.237 1.419.71.473.405.709.843.709 1.316v53.682c0 .54-.236 1.013-.71 1.418-.404.405-.877.608-1.417.608-.608 0-1.115-.203-1.52-.608-.405-.405-.607-.878-.607-1.418V22.706c0-.54.202-1.013.607-1.418.405-.405.912-.608 1.52-.608zm236.505 0c.54 0 1.013.237 1.418.71.473.405.709.843.709 1.316v53.682c0 .54-.236 1.013-.709 1.418-.405.405-.878.608-1.418.608-.608 0-1.114-.203-1.52-.608-.405-.405-.607-.878-.607-1.418V22.706c0-.54.202-1.013.607-1.418.406-.405.912-.608 1.52-.608zm-374.254.203h2.33c.54 0 1.012.203 1.418.608.405.405.607.912.607 1.52v53.58c0 .54-.236 1.047-.709 1.52-.405.405-.911.607-1.52.607h-2.126zm418.617 0h2.33c.54 0 1.013.203 1.418.608.405.405.608.912.608 1.52v53.58c0 .54-.237 1.047-.71 1.52-.404.405-.911.607-1.519.607h-2.127zM331.682 54.308l1.114 12.56h-2.228z"/><path d="M377.721 63.75a11.33 11.33 0 01-11.33 11.33 11.33 11.33 0 01-11.329-11.33 11.33 11.33 0 0111.33-11.33 11.33 11.33 0 0111.33 11.33z" fill="#ed8461"/><path d="M491.367 94.532l-1.072.175c0 1.524.41 2.696 1.23 3.516.833.82 2.004 1.23 3.516 1.23 1.243 0 2.333-.444 3.27-1.335.938-.903 1.406-2.016 1.406-3.34l-.931-.246c-.07 1.172-.434 2.103-1.09 2.795-.645.68-1.518 1.02-2.62 1.02-2.472 0-3.709-1.272-3.709-3.815zm-387.866.896c-.879 0-1.852.07-2.918.211a18.13 18.13 0 00-2.9.58l-.44 1.653c2.039-.762 4.102-1.143 6.188-1.143 2.062 0 3.475.38 4.236 1.143.774.75 1.16 1.652 1.16 2.707 0 1.781-.48 3.082-1.44 3.902-.962.81-2.497 1.214-4.607 1.214-1.324 0-2.174-.024-2.549-.07l-.369 1.44c.574-.081 1.635-.122 3.182-.122 1.7 0 3.287.357 4.764 1.072 1.477.715 2.215 2.086 2.215 4.114 0 1.77-.586 3.17-1.758 4.202-1.16 1.02-2.713 1.529-4.659 1.529-1.43 0-2.637-.1-3.621-.3-.973-.21-2.068-.602-3.287-1.177l-.352 1.477c1.863.844 4.325 1.266 7.384 1.266 2.355 0 4.242-.703 5.66-2.11 1.43-1.418 2.145-3.047 2.145-4.887 0-1.477-.404-2.725-1.213-3.744-.809-1.02-2.075-1.7-3.797-2.04v-.123c2.543-1.125 3.815-3.03 3.815-5.713 0-1.618-.604-2.866-1.811-3.745-1.207-.89-2.883-1.336-5.028-1.336zm-74.574.281c.2 3.961.299 7.577.299 10.847 0 2.825-.1 6.845-.299 12.06h1.846a329.054 329.054 0 01-.194-11.374c.059 0 .34-.012.844-.036a44.22 44.22 0 011.97-.035c1.452 0 2.8.387 4.043 1.16 1.242.774 2.162 1.788 2.76 3.042.597 1.242 1.084 2.62 1.459 4.131.386 1.5.691 2.538.914 3.112h1.881l-.756-2.127c-.762-2.239-1.442-4.032-2.04-5.38-.585-1.348-1.277-2.326-2.074-2.935-.797-.622-1.728-1.09-2.795-1.407v-.176c2.52-.96 4.19-2.713 5.01-5.256a271.5 271.5 0 011.864-5.626h-1.723c-.058.07-.152.323-.281.756l-.193.615c-.657 3.54-1.712 5.913-3.165 7.12-1.453 1.208-3.088 1.811-4.905 1.811-1.195 0-2.133-.024-2.813-.07 0-4.173.065-7.583.194-10.232zm250.778 0c0 .762-1.635 4.677-4.905 11.744-3.258 7.067-4.887 10.788-4.887 11.163h1.88c0-.387.247-1.248.74-2.584.492-1.336 1.277-3.258 2.355-5.766h11.48c2.109 4.805 3.164 7.588 3.164 8.35h1.81c0-.621-1.611-4.418-4.834-11.392-3.211-6.985-4.817-10.823-4.817-11.515zm77.51 0v1.477l3.48-.088c1.817-.058 3.188-.088 4.114-.088.082 1.97.141 3.64.176 5.01.047 1.372.07 2.883.07 4.536 0 3.13-.093 7.15-.28 12.06h1.828c-.118-4.231-.177-8.263-.177-12.095 0-3.598.06-6.768.177-9.51.797 0 2.484.029 5.062.087l2.461.053.07-1.442zm-76.684 1.442h.158c0 .199.422 1.23 1.266 3.094.844 1.851 2.133 4.805 3.867 8.86H275.31c3.48-7.63 5.221-11.614 5.221-11.954zm158.571 3.973c-2.32 0-4.22.96-5.696 2.883a10.293 10.293 0 00-1.406 2.988c-.305 1.09-.457 2.274-.457 3.552 0 2.402.78 4.424 2.338 6.065 1.57 1.629 3.908 2.443 7.014 2.443.856 0 1.665-.058 2.426-.176.762-.105 1.324-.216 1.688-.334l.246-1.406c-1.195.363-2.695.545-4.5.545-2.38 0-4.272-.738-5.679-2.215-1.394-1.489-2.092-3.37-2.092-5.643l12.64-.14c.047-.388.07-.903.07-1.548 0-1.98-.58-3.645-1.74-4.993-1.149-1.347-2.766-2.021-4.852-2.021zm-382.188.035c-2.309 0-4.26.873-5.854 2.62-1.594 1.746-2.391 4.125-2.391 7.137 0 2.602.71 4.653 2.127 6.153 1.43 1.488 3.206 2.232 5.327 2.232 2.227 0 4.137-.867 5.731-2.601 1.606-1.735 2.409-4.085 2.409-7.05 0-2.86-.768-4.987-2.303-6.381-1.536-1.407-3.218-2.11-5.046-2.11zm87.76 0c-2.31 0-4.26.873-5.855 2.62-1.594 1.746-2.39 4.125-2.39 7.137 0 2.602.708 4.653 2.126 6.153 1.43 1.488 3.206 2.232 5.327 2.232 2.227 0 4.137-.867 5.731-2.601 1.606-1.735 2.408-4.085 2.408-7.05 0-2.86-.767-4.987-2.302-6.381-1.535-1.407-3.217-2.11-5.046-2.11zm39.994 0c-2.31 0-4.26.873-5.854 2.62-1.594 1.746-2.391 4.125-2.391 7.137 0 2.602.709 4.653 2.127 6.153 1.43 1.488 3.205 2.232 5.326 2.232 2.227 0 4.137-.867 5.731-2.601 1.606-1.735 2.41-4.085 2.41-7.05 0-2.86-.769-4.987-2.304-6.381-1.535-1.407-3.217-2.11-5.045-2.11zm291.264 0c-2.309 0-4.26.873-5.854 2.62-1.594 1.746-2.391 4.125-2.391 7.137 0 2.602.709 4.653 2.127 6.153 1.43 1.488 3.206 2.232 5.327 2.232 2.227 0 4.137-.867 5.731-2.601 1.606-1.735 2.408-4.085 2.408-7.05 0-2.86-.767-4.987-2.303-6.381-1.535-1.407-3.217-2.11-5.045-2.11zm-311.165.14c-1.383 0-2.596.217-3.64.65-1.042.435-1.833.986-2.372 1.654h-.07l-.264-2.057-1.652.369c.199 1.16.328 2.496.386 4.008.059 1.512.088 3.499.088 5.96v3.27c0 2.238-.006 4.336-.018 6.293a130.28 130.28 0 01-.123 5.204h1.9c-.071-2.192-.107-5.098-.107-8.72h.14c.352.305.927.568 1.724.791.809.223 1.781.334 2.918.334 2.461 0 4.448-.89 5.96-2.672 1.523-1.781 2.285-4.038 2.285-6.768 0-2.227-.639-4.167-1.916-5.82-1.266-1.663-3.012-2.495-5.24-2.495zm219.38.036c-1.875 0-3.71.24-5.502.72l-.229 1.512c1.899-.48 3.786-.72 5.66-.72 1.583 0 2.831.316 3.745.949.915.62 1.372 1.735 1.372 3.34 0 .41-.024.827-.07 1.249-4.349.035-7.349.568-9.001 1.6-1.641 1.03-2.462 2.501-2.462 4.412 0 1.523.48 2.684 1.442 3.48.96.786 2.332 1.178 4.113 1.178 2.38 0 4.348-.744 5.907-2.232h.106c0 .515.058 1.137.176 1.863l1.406-.07a39.438 39.438 0 01-.405-5.468c0-1.195.03-2.396.088-3.603.07-1.22.106-2.145.106-2.778 0-1.945-.568-3.335-1.705-4.167-1.137-.843-2.72-1.265-4.747-1.265zm35.758 0c-1.875 0-3.71.24-5.503.72l-.228 1.512c1.898-.48 3.785-.72 5.66-.72 1.582 0 2.83.316 3.745.949.914.62 1.371 1.735 1.371 3.34 0 .41-.024.827-.07 1.249-4.348.035-7.349.568-9.001 1.6-1.64 1.03-2.461 2.501-2.461 4.412 0 1.523.48 2.684 1.441 3.48.961.786 2.332 1.178 4.114 1.178 2.379 0 4.348-.744 5.907-2.232h.105c0 .515.059 1.137.176 1.863l1.407-.07a39.438 39.438 0 01-.405-5.468c0-1.195.03-2.396.088-3.603.07-1.22.106-2.145.106-2.778 0-1.945-.569-3.335-1.706-4.167-1.137-.843-2.719-1.265-4.746-1.265zm-176.942.21l-1.881.44a69.741 69.741 0 00-2.76-.193 38.363 38.363 0 00-2.356-.07c-2.04 0-3.522.41-4.448 1.23-.914.809-1.371 1.998-1.371 3.569 0 .879.299 1.652.896 2.32.598.668 1.436 1.143 2.514 1.425v.175c-.797.223-1.394.61-1.793 1.16-.387.54-.96 1.928-1.723 4.167l-.298.896c-.387 1.02-.651 1.67-.792 1.952h1.512c.352-.914.563-1.547.633-1.899.07-.363.317-1.09.739-2.18.433-1.101.855-1.91 1.266-2.426.422-.515 1.025-.838 1.81-.967a16.949 16.949 0 012.69-.193c1.77 0 3.053.023 3.85.07v3.517c0 2.015-.024 3.375-.07 4.078h1.582c-.082-.645-.153-1.635-.211-2.971a112.557 112.557 0 01-.088-4.8c0-2.883.1-5.982.299-9.3zm-160.98.07l-1.81.3h-4.641c-3 5.32-5.21 10.443-6.628 15.365h-1.371c0 2.086-.012 3.662-.036 4.729.024.62.036 1.928.036 3.92h.984c0-.762.047-1.822.14-3.182.106-1.36.235-2.736.387-4.131 2.637-.07 4.981-.106 7.032-.106 3.528 0 6.154.036 7.876.106v.897c0 1.02-.023 2.238-.07 3.656a109.99 109.99 0 00-.07 2.76h.966c0-1.125.123-2.702.37-4.73.257-2.027.387-3.333.387-3.919h-3.64c-.094-2.719-.14-4.84-.14-6.364 0-3.657.076-6.757.228-9.3zm46.992 0l-1.811.3h-4.641c-3 5.32-5.21 10.443-6.628 15.365h-1.371c0 2.086-.012 3.662-.035 4.729.023.62.035 1.928.035 3.92h.984c0-.762.047-1.822.14-3.182.106-1.36.235-2.736.388-4.131 2.637-.07 4.98-.106 7.031-.106 3.528 0 6.154.036 7.877.106v.897c0 1.02-.024 2.238-.07 3.656a109.8 109.8 0 00-.071 2.76h.967c0-1.125.123-2.702.37-4.73.257-2.027.386-3.333.386-3.919h-3.64c-.093-2.719-.14-4.84-.14-6.364 0-3.657.076-6.757.229-9.3zm87.16 0l-1.95.406c.21 1.03.34 2.115.386 3.252.058 1.125.088 2.812.088 5.063-.012.632-.018 1.682-.018 3.147l-.017 2.566c-.012 1.313-.035 2.168-.07 2.567 1.64.07 3.076.105 4.306.105 2.497 0 4.454-.545 5.872-1.635 1.418-1.09 2.128-2.402 2.128-3.937 0-1.56-.616-2.796-1.847-3.71-1.23-.914-3.064-1.371-5.502-1.371-.644 0-1.834.106-3.569.317 0-1.63.012-2.79.035-3.482.024-.691.077-1.787.159-3.287zm90.326 0l-1.652.3h-5.485c-.95 4.16-2.21 7.794-3.78 10.9-1.57 3.093-2.865 4.64-3.885 4.64l.176 1.442c1.195 0 2.59-1.465 4.184-4.395 1.606-2.93 3.035-6.721 4.29-11.374h4.535l.07 3.041c.07 2.157.106 3.856.106 5.098l.017 2.567c.012.492.018 1.202.018 2.127a42.84 42.84 0 01-.07 2.655h1.547c-.164-1.98-.247-4.547-.247-7.7 0-3.27.059-6.37.176-9.3zm17.65 0l-1.652.3h-5.485c-.95 4.16-2.21 7.794-3.78 10.9-1.57 3.093-2.865 4.64-3.885 4.64l.176 1.442c1.196 0 2.59-1.465 4.184-4.395 1.605-2.93 3.036-6.721 4.29-11.374h4.535l.07 3.041c.071 2.157.106 3.856.106 5.098l.018 2.567c.012.492.017 1.202.017 2.127 0 1.032-.024 1.917-.07 2.655h1.547c-.164-1.98-.246-4.547-.246-7.7 0-3.27.058-6.37.176-9.3zm6.927 0l-1.951.406c.21 1.03.34 2.115.387 3.252.059 1.125.088 2.812.088 5.063-.012.632-.018 1.682-.018 3.147l-.017 2.566c-.012 1.313-.036 2.168-.07 2.567 1.64.07 2.888.105 3.743.105 2.415 0 4.337-.538 5.767-1.617 1.43-1.078 2.144-2.397 2.144-3.955 0-1.56-.615-2.796-1.845-3.71-1.231-.914-3.065-1.371-5.503-1.371-.363 0-.726.018-1.09.053a36.07 36.07 0 00-1.828.193c0-1.652.012-2.807.035-3.463.023-.668.076-1.747.158-3.235zm15.294 0l-1.95.406c.269 1.488.427 4.066.474 7.735l.017 2.83c.012.621.018 1.54.018 2.76 0 1.336-.024 2.426-.07 3.27h1.547c-.165-2.38-.246-4.946-.246-7.7 0-3.563.07-6.663.21-9.3zm51.44 0l-1.917.406c.188 1.054.31 2.273.37 3.656.07 1.371.105 3.094.105 5.168l.017 3.657c0 1.758-.04 3.13-.123 4.114h1.618c-.176-2.168-.264-4.94-.264-8.315h9.95l.018 2.76c.012.574.017 1.4.017 2.478 0 1.208-.023 2.233-.07 3.077h1.547c-.176-2.32-.264-4.887-.264-7.7 0-3.657.076-6.757.229-9.3l-1.952.405c.14.82.24 1.78.3 2.882.058 1.09.105 2.514.14 4.272h-9.915c.035-4.066.1-6.586.193-7.56zm91.995 0l-1.916.406c.188 1.148.305 2.402.352 3.762.058 1.36.088 3.07.088 5.133l.017 3.534c0 1.687-.047 3.076-.14 4.166h1.476c0-.246.434-1.026 1.301-2.338.867-1.313 2.08-2.971 3.639-4.975l.88-1.125c1.429-1.84 2.478-3.206 3.146-4.097.668-.902 1.054-1.523 1.16-1.863h.07a45.656 45.656 0 00-.088 2.848l.018 1.828.018 6.347c0 1.687-.018 2.812-.053 3.375h1.547c-.164-2.18-.246-4.747-.246-7.7 0-3.563.07-6.663.21-9.3l-1.582.299c0 .422-.767 1.734-2.303 3.938a140.449 140.449 0 01-4.904 6.575c-1.723 2.18-2.672 3.416-2.848 3.71h-.105l.017-2.814c.012-.48.017-1.12.017-1.916 0-2.52.012-4.541.036-6.065.035-1.535.099-2.778.193-3.727zm-287.238.107c-1.336 0-3.124.064-5.362.193h-.58c.176 1.031.299 2.268.369 3.71.07 1.44.106 3.181.106 5.22 0 1.864-.006 3.499-.018 4.905-.012 1.407-.041 2.362-.088 2.866 1.418.07 2.924.105 4.518.105 2.684 0 4.7-.445 6.047-1.336 1.348-.902 2.022-2.127 2.022-3.674 0-1.102-.31-1.957-.932-2.567-.62-.62-1.505-1.037-2.654-1.248v-.035c.856-.375 1.547-.902 2.074-1.582.528-.692.791-1.541.791-2.549 0-1.313-.521-2.309-1.564-2.989-1.043-.68-2.62-1.02-4.729-1.02zm253.538 0c-1.336 0-3.124.064-5.362.193h-.58c.176 1.031.298 2.268.369 3.71.07 1.44.105 3.181.105 5.22 0 1.864-.006 3.499-.018 4.905-.011 1.407-.04 2.362-.087 2.866 1.418.07 2.924.105 4.518.105 2.684 0 4.7-.445 6.047-1.336 1.348-.902 2.022-2.127 2.022-3.674 0-1.102-.31-1.957-.932-2.567-.62-.62-1.506-1.037-2.654-1.248v-.035c.855-.375 1.547-.902 2.074-1.582.527-.692.791-1.541.791-2.549 0-1.313-.521-2.309-1.564-2.989-1.044-.68-2.62-1.02-4.73-1.02zm-399.628.615c1.887 0 3.417.762 4.589 2.285 1.172 1.524 1.758 3.428 1.758 5.714 0 1.851-.516 3.61-1.547 5.274-1.032 1.664-2.62 2.496-4.764 2.496-1.899 0-3.423-.744-4.571-2.233-1.149-1.488-1.723-3.404-1.723-5.748 0-1.876.504-3.64 1.512-5.292 1.008-1.664 2.59-2.496 4.746-2.496zm87.76 0c1.886 0 3.416.762 4.588 2.285 1.172 1.524 1.758 3.428 1.758 5.714 0 1.851-.516 3.61-1.547 5.274-1.031 1.664-2.62 2.496-4.764 2.496-1.899 0-3.423-.744-4.571-2.233-1.149-1.488-1.723-3.404-1.723-5.748 0-1.876.504-3.64 1.512-5.292 1.008-1.664 2.59-2.496 4.746-2.496zm39.994 0c1.887 0 3.416.762 4.588 2.285 1.172 1.524 1.758 3.428 1.758 5.714 0 1.851-.515 3.61-1.547 5.274-1.031 1.664-2.619 2.496-4.764 2.496-1.898 0-3.422-.744-4.57-2.233-1.15-1.488-1.724-3.404-1.724-5.748 0-1.876.505-3.64 1.512-5.292 1.008-1.664 2.59-2.496 4.747-2.496zm291.264 0c1.887 0 3.416.762 4.588 2.285 1.172 1.524 1.759 3.428 1.759 5.714 0 1.851-.516 3.61-1.548 5.274-1.03 1.664-2.619 2.496-4.764 2.496-1.898 0-3.422-.744-4.57-2.233-1.149-1.488-1.723-3.404-1.723-5.748 0-1.876.504-3.64 1.512-5.292 1.008-1.664 2.59-2.496 4.746-2.496zm-36.425.07c1.675 0 2.941.533 3.797 1.6.855 1.066 1.283 2.59 1.283 4.57H433.09c.282-2.015.95-3.545 2.005-4.588 1.066-1.054 2.379-1.582 3.938-1.582zm-274.985.3c1.922 0 3.433.626 4.535 1.88 1.102 1.242 1.652 2.988 1.652 5.239 0 2.414-.603 4.348-1.81 5.801-1.196 1.442-2.872 2.163-5.028 2.163-.914 0-1.776-.106-2.584-.317-.797-.21-1.471-.515-2.022-.914 0-.844-.012-1.993-.035-3.446l-.053-3.48a140.52 140.52 0 01-.088-4.413 7.084 7.084 0 012.286-1.811c.914-.469 1.963-.703 3.147-.703zm38.517.175c1.687 0 2.912.275 3.674.826.762.55 1.143 1.365 1.143 2.443 0 1.184-.452 2.022-1.354 2.514-.902.493-2.174.739-3.815.739-1.37 0-2.672-.012-3.902-.035l.017-3.06c0-1.171-.017-2.255-.053-3.252 1.008-.07 1.8-.117 2.374-.14a48.22 48.22 0 011.916-.035zm253.537 0c1.688 0 2.913.275 3.675.826.762.55 1.143 1.365 1.143 2.443 0 1.184-.452 2.022-1.354 2.514-.903.493-2.174.739-3.815.739-1.371 0-2.672-.012-3.903-.035l.018-3.06c0-1.171-.018-2.255-.053-3.252 1.008-.07 1.8-.117 2.374-.14a48.22 48.22 0 011.915-.035zm-220.135.07c2.32 0 4.05.1 5.186.3l.035.632c.153 2.285.229 4.23.229 5.836-.575.047-1.74.07-3.499.07-2.203 0-3.809-.28-4.817-.843s-1.512-1.383-1.512-2.461c0-1.301.352-2.215 1.055-2.743.704-.527 1.811-.79 3.323-.79zm-159.679.176h4.061c.012.598.041 1.805.088 3.621.047 1.817.07 3.206.07 4.167 0 1.746.047 3.868.141 6.364H70.31c.727-2.766 1.594-5.274 2.602-7.524a74.97 74.97 0 013.375-6.628zm46.991 0h4.061c.012.598.041 1.805.088 3.621.047 1.817.07 3.206.07 4.167 0 1.746.048 3.868.141 6.364h-10.337c.727-2.766 1.594-5.274 2.602-7.524a74.972 74.972 0 013.375-6.628zm-107.993.58L10.1 109.58v.861l5.186 5.942 1.002-.44-4.57-5.888 4.57-5.872zm7.278 0l-5.186 5.872v.861l5.186 5.942 1.002-.44-4.571-5.888 4.57-5.872zm225.462 0l-1.001.475 4.57 5.872-4.57 5.888 1.001.44 5.187-5.942v-.861zm7.279 0l-1.002.475 4.57 5.872-4.57 5.888 1.002.44 5.186-5.942v-.861zm-35.863 5.555c2.004 0 3.498.335 4.483 1.003.996.656 1.494 1.663 1.494 3.023 0 1.324-.551 2.373-1.653 3.147-1.09.762-2.566 1.143-4.43 1.143-.668 0-1.19-.012-1.564-.035a60.354 60.354 0 01-1.794-.159c-.046-2.156-.07-4.735-.07-7.735.75-.152 1.383-.252 1.899-.299a14.824 14.824 0 011.635-.088zm114.252 0c2.004 0 3.498.335 4.483 1.003.996.656 1.494 1.663 1.494 3.023 0 1.324-.551 2.373-1.653 3.147-1.09.762-2.567 1.143-4.43 1.143a17.21 17.21 0 01-1.547-.053 80.55 80.55 0 00-1.16-.14c-.047-2.157-.07-4.759-.07-7.806a20.49 20.49 0 011.494-.246c.41-.047.873-.07 1.389-.07zm55.5.352v5.801c-.645.762-1.46 1.33-2.444 1.706-.973.375-2.092.562-3.358.562-2.766 0-4.149-1.043-4.149-3.13 0-1.874.885-3.163 2.655-3.866 1.77-.715 4.202-1.073 7.296-1.073zm35.757 0v5.801c-.644.762-1.459 1.33-2.443 1.706-.973.375-2.093.562-3.358.562-2.766 0-4.15-1.043-4.15-3.13 0-1.874.886-3.163 2.655-3.866 1.77-.715 4.202-1.073 7.296-1.073zm-222.826.896c2.227 0 3.78.252 4.66.756.878.493 1.318 1.36 1.318 2.602 0 1.149-.516 2.057-1.547 2.725-1.032.657-2.409.985-4.132.985-.972 0-1.758-.012-2.355-.035a23.064 23.064 0 01-1.688-.159c-.047-2.156-.07-4.436-.07-6.838.96-.024 2.232-.036 3.814-.036zm253.538 0c2.227 0 3.78.252 4.659.756.879.493 1.318 1.36 1.318 2.602 0 1.149-.515 2.057-1.546 2.725-1.032.657-2.41.985-4.132.985-.973 0-1.758-.012-2.356-.035a23.007 23.007 0 01-1.687-.159c-.047-2.156-.07-4.436-.07-6.838a164.06 164.06 0 013.814-.036z"/></svg>