<svg xmlns="http://www.w3.org/2000/svg" width="512" height="512"><path d="M193.179 159.328c-26.985-.176-48.902 12.074-60.054 25.76-6.518 8-12.54 20.128-15.134 34.254-2.593 14.127-1.424 30.61 8.5 44.62 5.341 7.54 15.001 16.44 27.334 27.168 12.333 10.729 27.085 22.72 41.31 33.978 28.449 22.517 54.806 42.104 54.806 42.104l5.379 5.586 5.379-5.586s26.357-19.587 54.806-42.104c14.224-11.258 28.976-23.25 41.31-33.978 12.332-10.728 21.99-19.628 27.332-27.169 9.924-14.01 11.093-30.492 8.5-44.619-2.593-14.126-8.616-26.254-15.135-34.254-11.512-14.128-34.494-26.725-62.68-25.704-4.027.146-8.159.57-12.38 1.308-19.305 3.37-32.641 18.564-41.642 31.84a140.525 140.525 0 00-5.49 8.8 140.603 140.603 0 00-5.492-8.8c-9.001-13.276-22.337-28.47-41.642-31.84a91.129 91.129 0 00-12.38-1.308c-.881-.032-1.757-.05-2.627-.056zm.796 18.129c3.604.025 7.317.34 11.11 1.002 11.061 1.931 22.068 12.766 29.817 24.194 7.749 11.428 12.022 22.269 12.022 22.269s2.437 2.404 8.396 2.404c5.958 0 8.396-2.404 8.396-2.404s4.273-10.84 12.022-22.269c7.749-11.428 18.755-22.263 29.817-24.194 26.97-4.709 49.924 8.137 57.977 18.02 4.086 5.015 9.391 15.301 11.377 26.12 1.986 10.818.986 21.81-5.479 30.937-2.853 4.028-12.474 13.566-24.453 23.987-11.98 10.42-26.57 22.289-40.665 33.444-20.572 16.282-39.954 30.953-48.992 37.742-9.038-6.79-28.42-21.46-48.992-37.742-14.095-11.155-28.687-23.023-40.666-33.444-11.98-10.42-21.602-19.959-24.455-23.987-6.465-9.127-7.463-20.119-5.477-30.937 1.986-10.819 7.292-21.105 11.378-26.12 6.92-8.493 24.846-19.175 46.867-19.022zm269.43 1.064c-9.231 0-17.468 5.502-23.275 14.03-5.808 8.527-9.321 20.144-9.321 32.939 0 12.795 3.513 24.409 9.32 32.936 3.63 5.33 8.21 9.479 13.386 11.841v142.476h20.557V269.896c4.858-2.412 9.16-6.409 12.607-11.47C492.487 249.9 496 238.285 496 225.49c0-12.795-3.514-24.412-9.321-32.94-5.808-8.527-14.044-14.03-23.275-14.03zM22.59 197.113C18.432 205.025 16 214.849 16 225.49c0 12.795 3.513 24.409 9.321 32.936 3.63 5.33 8.208 9.479 13.386 11.841v142.476h20.556V269.896c4.858-2.412 9.16-6.409 12.607-11.47 5.808-8.527 9.321-20.141 9.321-32.936 0-10.641-2.432-20.465-6.59-28.377h-8.424v42.442H57.11v-42.442H40.08v42.442h-9.066v-42.442zm389 53.381a59.088 59.088 0 01-7.004 13.134c-2.063 2.912-4.693 6.004-7.797 9.287a145.321 145.321 0 11-281.865 1.132c-3.582-3.709-6.575-7.173-8.874-10.42a59.025 59.025 0 01-6.296-11.36 166.198 166.198 0 10311.835-1.773z" fill="#F24141"/></svg>