<svg xmlns="http://www.w3.org/2000/svg" width="512" height="512"><path d="M75.79 83.915a20.504 20.504 0 00-7.56 1.41c-9.89 3.863-14.154 13.526-15.94 23.21-3.575 19.37 1.211 44.984 14.35 66.388 13.032 21.23 30.483 30.773 54.983 43.023 24.5 12.25 57.525 28.131 106.848 63.442l7.982 5.716 5.861-7.877s38.73-52.523 8.807-110.707c-15.768-30.66-48.467-41.734-78.959-49.308-30.491-7.575-60.114-13.038-73.392-24.693-7.392-6.489-15.31-10.589-22.98-10.604zm.088 19.996c.075 0 .16.002.259.01 1.176.094 4.074.92 9.44 5.629 20.738 18.204 52.536 21.811 81.765 29.072 29.229 7.261 54.548 16.789 65.994 39.045 18.021 35.041 5.741 66.86-2.033 81.327-45.65-31.796-77.943-47.54-100.735-58.936-24.259-12.13-36.48-18.651-46.883-35.598-10.295-16.771-14.013-39.915-11.728-52.295 1.142-6.19 3.4-8.152 3.549-8.21a1.25 1.25 0 01.372-.044zm180.964 37.492a92.477 92.477 0 0112.065 17.97 127.572 127.572 0 011.53 3.079 141.386 141.386 0 0194.176 50.13c5.407-3.884 11.784-7.13 19.3-8.4a161.698 161.698 0 00-127.07-62.78zm133.959 82.201c-6.403 0-12.773 3.393-18.338 8.278-8.406 7.378-29.23 11.545-51.168 16.994-21.937 5.45-46.327 13.572-58.197 36.652-22.127 43.025 6.535 82.012 6.535 82.012l5.86 7.877 7.984-5.715c35.03-25.078 58.335-36.277 75.85-45.035 17.517-8.758 30.717-16.001 40.392-31.762 9.782-15.936 13.352-34.566 10.617-49.388-1.367-7.411-4.698-15.408-13.15-18.71a17.418 17.418 0 00-6.385-1.203zm-281.14 10.71a161.698 161.698 0 00-15.36 68.784c0 89.304 72.395 161.698 161.699 161.698 89.303 0 161.698-72.394 161.698-161.698 0-.426-.002-.852-.005-1.278-.305.517-.613 1.034-.928 1.547-6.021 9.81-13.358 17.189-21.341 23.206-11.461 68.069-70.398 117.911-139.424 117.91-78.085.001-141.386-63.3-141.386-141.385 0-20.618 4.51-40.986 13.212-59.678-5.337-2.704-10.366-5.195-15.146-7.585-1.013-.506-2.015-1.013-3.019-1.52zm280.015 9.753c.277.563.675 1.362.992 3.079 1.445 7.832-1.055 23.993-7.994 35.297-7.046 11.478-15.016 15.697-32.291 24.335-15.711 7.855-38.36 19.144-69.455 40.503-5.186-10.716-11.353-30.614-.043-52.606 7.548-14.677 24.557-21.253 45.232-26.389 20.675-5.136 43.674-7.446 59.541-21.373 2.165-1.9 3.32-2.507 4.018-2.846zm68.112 2.723c-8.98 0-16.994 5.354-22.644 13.65-5.65 8.297-9.069 19.6-9.069 32.047 0 12.449 3.419 23.748 9.069 32.045 3.531 5.185 7.986 9.222 13.023 11.52v138.619h20V335.69c4.727-2.347 8.912-6.235 12.266-11.159 5.65-8.297 9.068-19.596 9.068-32.045 0-12.448-3.418-23.75-9.068-32.047-5.65-8.296-13.664-13.65-22.645-13.65zM28.911 264.879c-4.046 7.698-6.413 17.256-6.413 27.608 0 12.449 3.419 23.748 9.07 32.045 3.53 5.185 7.985 9.222 13.022 11.52v138.619h20V335.69c4.727-2.347 8.912-6.235 12.266-11.159 5.65-8.297 9.068-19.596 9.068-32.045 0-10.352-2.366-19.91-6.412-27.608h-8.195v41.293h-8.82v-41.293H45.925v41.293h-8.82v-41.293z" fill="#F2B035"/></svg>