<svg xmlns="http://www.w3.org/2000/svg" width="512" height="512" viewport="0 0 512 512"><path d="M131.408 147.65l-19.137 6.592s8.299 24.094 16.596 53.67c8.297 29.574 16.394 65.137 16.394 84.766 0 18.23-11.928 43.647-24.935 70.203-13.008 26.556-26.999 54.408-26.999 82.35 0 24.868 1.925 40.932 3.99 51.104 1.031 5.086 2.1 8.7 2.996 11.196a35.883 35.883 0 001.966 4.469l17.483-10.2s.125.352-.399-1.108-1.348-4.135-2.21-8.381c-1.723-8.491-3.585-23.262-3.585-47.08 0-16.108 7.221-35.532 16.516-55.796 14.462 4.47 99.888 31.018 105.46 36.257 6.084 5.718 10.336 13.585 10.336 14.13v57.342h20.24v-57.342c0-.545 4.253-8.412 10.336-14.13 5.573-5.239 90.999-31.787 105.46-36.257 9.295 20.264 16.516 39.688 16.516 55.795 0 23.82-1.862 38.59-3.585 47.081-.862 4.246-1.686 6.921-2.21 8.381s-.4 1.109-.4 1.109L409.722 512s1.07-1.973 1.967-4.469c.896-2.495 1.964-6.11 2.996-11.196 2.064-10.172 3.99-26.236 3.99-51.105 0-27.941-13.992-55.793-27-82.35-13.007-26.555-24.935-51.972-24.935-70.202 0-19.629 8.098-55.192 16.395-84.767 8.297-29.575 16.595-53.669 16.595-53.669l-19.137-6.592s-8.473 24.592-16.946 54.794c-8.473 30.201-17.147 65.504-17.147 90.234 0 7.306 1.098 14.642 2.963 21.998-7.05 2.973-20.158 8.372-34.978 13.827-21.945 8.077-48.529 15.757-58.484 15.757-9.955 0-36.539-7.68-58.484-15.757-14.82-5.455-27.927-10.854-34.977-13.826 1.864-7.357 2.962-14.693 2.962-21.999 0-24.73-8.674-60.033-17.147-90.234-8.473-30.202-16.945-54.794-16.946-54.794zm-34.452 92.431l-14.313 14.313 22.755 22.754H0v20.24h105.4l-22.757 22.756 14.313 14.312 37.067-37.067 10.12-10.12-10.12-10.12zm318.088 0l-37.067 37.067-10.12 10.12 10.12 10.12 37.067 37.068 14.313-14.312-22.757-22.755H512v-20.24H406.602l22.755-22.755zm-259.157 94.486c7.56 3.166 20.28 8.359 34.406 13.559 22.613 8.323 47.603 17.045 65.707 17.045 18.104 0 43.094-8.722 65.707-17.045 14.126-5.2 26.846-10.393 34.406-13.559 4.992 12.388 11.307 24.809 17.384 37.217 0 0-103.464 32.166-110.905 39.16-2.134 2.006-4.418 4.126-6.592 6.447-2.174-2.32-4.457-4.44-6.592-6.447-7.44-6.994-110.905-39.16-110.905-39.16 6.077-12.408 12.391-24.829 17.384-37.217z" fill="#166B8C" /></svg>